<?xml version="1.0" encoding="UTF-8" standalone="no"?>
<!-- Generator: Adobe Illustrator 16.0.0, SVG Export Plug-In . SVG Version: 6.00 Build 0)  -->

<svg
   xmlns:dc="http://purl.org/dc/elements/1.1/"
   xmlns:cc="http://creativecommons.org/ns#"
   xmlns:rdf="http://www.w3.org/1999/02/22-rdf-syntax-ns#"
   xmlns:svg="http://www.w3.org/2000/svg"
   xmlns="http://www.w3.org/2000/svg"
   xmlns:xlink="http://www.w3.org/1999/xlink"
   xmlns:sodipodi="http://sodipodi.sourceforge.net/DTD/sodipodi-0.dtd"
   xmlns:inkscape="http://www.inkscape.org/namespaces/inkscape"
   version="1.1"
   id="HackerRank"
   x="0px"
   y="0px"
   width="3000px"
   height="643px"
   viewBox="0 0 3000 643"
   enable-background="new 0 0 3000 643"
   xml:space="preserve"
   inkscape:version="0.91 r13725"
   sodipodi:docname="hackerRankWhite.svg"><metadata
     id="metadata56"><rdf:RDF><cc:Work
         rdf:about=""><dc:format>image/svg+xml</dc:format><dc:type
           rdf:resource="http://purl.org/dc/dcmitype/StillImage" /><dc:title></dc:title></cc:Work></rdf:RDF></metadata><defs
     id="defs54" /><sodipodi:namedview
     pagecolor="#ffffff"
     bordercolor="#666666"
     borderopacity="1"
     objecttolerance="10"
     gridtolerance="10"
     guidetolerance="10"
     inkscape:pageopacity="0"
     inkscape:pageshadow="2"
     inkscape:window-width="1366"
     inkscape:window-height="705"
     id="namedview52"
     showgrid="false"
     inkscape:zoom="0.194"
     inkscape:cx="1355.0538"
     inkscape:cy="254.48391"
     inkscape:window-x="-8"
     inkscape:window-y="-8"
     inkscape:window-maximized="1"
     inkscape:current-layer="HackerRank" /><g
     id="g3"><g
       id="Hexagon_1_"><g
         id="g6"><linearGradient
           id="SVGID_1_"
           gradientUnits="userSpaceOnUse"
           x1="532.4087"
           y1="290.1465"
           x2="532.4087"
           y2="16.5"><stop
             offset="0"
             style="stop-color:#25A559"
             id="stop9" /><stop
             offset="1"
             style="stop-color:#30CE68"
             id="stop11" /></linearGradient><path
           fill="url(#SVGID_1_)"
           d="M450.144,16.5c-14.651,0-61.362,22.151-111.534,49.901l387.597,223.745     c-1.113-57.23-5.305-108.562-12.612-121.143c-6.163-10.626-37.215-33.152-76.09-57.697L533.851,51.472     C495.027,31.112,462.035,16.5,450.144,16.5z"
           id="path13" /><linearGradient
           id="SVGID_2_"
           gradientUnits="userSpaceOnUse"
           x1="478.7886"
           y1="416.1641"
           x2="478.7885"
           y2="66.4014"><stop
             offset="0"
             style="stop-color:#25A559"
             id="stop16" /><stop
             offset="1"
             style="stop-color:#30CE68"
             id="stop18" /></linearGradient><path
           fill="url(#SVGID_2_)"
           d="M231.065,131.953l492.351,284.211c2.708-35.907,3.643-82.633,2.791-126.018L338.61,66.401     C300.6,87.423,260.631,111.636,231.065,131.953z"
           id="path20" /><linearGradient
           id="SVGID_3_"
           gradientUnits="userSpaceOnUse"
           x1="450.1143"
           y1="511.7988"
           x2="450.1142"
           y2="131.9531"><stop
             offset="0"
             style="stop-color:#25A559"
             id="stop23" /><stop
             offset="1"
             style="stop-color:#30CE68"
             id="stop25" /></linearGradient><path
           fill="url(#SVGID_3_)"
           d="M231.065,131.953c-23.216,15.938-40.028,29.451-44.371,37.051     c-4.447,7.779-7.735,30.065-9.881,59.246l491.18,283.549c23.83-16.282,41.171-30.111,45.603-37.803     c4.396-7.614,7.659-29.314,9.821-57.832L231.065,131.953z"
           id="path27" /><linearGradient
           id="SVGID_4_"
           gradientUnits="userSpaceOnUse"
           x1="420.9878"
           y1="578.4492"
           x2="420.9878"
           y2="228.0391"><stop
             offset="0"
             style="stop-color:#25A559"
             id="stop30" /><stop
             offset="1"
             style="stop-color:#30CE68"
             id="stop32" /></linearGradient><path
           fill="url(#SVGID_4_)"
           d="M668.173,511.679l-491.345-283.64c-2.725,36.841-3.612,84.725-2.649,128.712l384.038,221.698     C596.807,557.216,637.799,532.444,668.173,511.679z"
           id="path34" /><linearGradient
           id="SVGID_5_"
           gradientUnits="userSpaceOnUse"
           x1="366.1978"
           y1="626.5"
           x2="366.1978"
           y2="356.751"><stop
             offset="0"
             style="stop-color:#25A559"
             id="stop37" /><stop
             offset="1"
             style="stop-color:#30CE68"
             id="stop39" /></linearGradient><path
           fill="url(#SVGID_5_)"
           d="M174.179,356.751c1.22,55.576,5.381,104.831,12.515,117.245     C203.943,504.032,415.685,626.5,450.144,626.5c14.314,0,59.225-21.174,108.073-48.051L174.179,356.751z"
           id="path41" /></g></g><g
       id="H_1_"><image
         sodipodi:absref="C:\Users\ivan rodriguez\Downloads\Projects\hacker-rank-js\src\assets\img\2276F829F632BF8F.png"
         xlink:href="2276F829F632BF8F.png"
         id="image44"
         transform="matrix(1 0 0 1 292 111)"
         height="427"
         width="316"
         opacity="0.1"
         overflow="visible" /><g
         id="g46"><path
           fill="#FFFFFF"
           d="M501.931,345.368v105.574h-17.819c-3.621,0-6.551,2.935-6.551,6.545c0,2.37,1.256,4.44,3.138,5.591     l40.05,38.391c1.197,1.564,3.574,2.753,5.697,2.753c2.168,0,4.086-1.128,5.275-2.753l42.669-38.397     c1.873-1.151,3.123-3.221,3.123-5.584c0-3.61-2.935-6.545-6.55-6.545h-17.881l-0.153-255.099c0-3.613-2.868-6.547-6.483-6.547     h-37.928c-3.62,0-6.585,2.934-6.585,6.547v98.478l-103.554-0.014v-102.25h17.821c3.619,0,6.55-2.935,6.55-6.547     c0-2.37-1.256-4.438-3.137-5.59l-40.05-38.389c-1.198-1.565-3.575-2.755-5.698-2.755c-2.167,0-4.086,1.13-5.274,2.755     l-42.671,38.396c-1.873,1.15-3.122,3.219-3.122,5.582c0,3.612,2.935,6.547,6.551,6.547h17.881l0.154,255.099     c0,3.613,2.868,6.547,6.483,6.547h37.928c3.62,0,6.585-2.934,6.585-6.547V345.368H501.931z"
           id="path48" /></g></g><path
       fill-rule="evenodd"
       clip-rule="evenodd"
       fill="#39424E"
       d="M2215.807,430.207c-21.197-34.658-42.503-69.25-63.737-103.884   c-1.818-2.965-3.367-6.095-5.366-9.74c4.735-1.432,8.245-2.392,11.689-3.551c31.929-10.738,51.601-37.057,52.614-70.331   c1.202-39.408-19.442-66.994-57.794-76.526c-8.672-2.154-17.672-3.869-26.563-4.091c-28.63-0.715-57.279-0.693-85.922-0.846   c-16.655-0.089-16.951,0.262-16.953,16.477c-0.013,84.614-0.011,169.229,0.003,253.845c0.001,2.993,0.033,6,0.302,8.979   c0.374,4.158,2.522,6.954,6.94,7.023c8.991,0.141,17.987,0.116,26.979,0.06c4.371-0.027,6.741-2.636,7.335-6.719   c0.381-2.616,0.234-5.317,0.235-7.98c0.012-33.312,0.008-66.626,0.008-99.938c0-3.622,0-7.244,0-12.848   c10.023,0,18.615,0.285,27.177-0.101c5.708-0.258,9.183,1.737,11.998,6.786c7.135,12.792,14.796,25.289,22.261,37.896   c14.759,24.928,29.615,49.8,44.222,74.818c3.102,5.312,6.453,8.802,13.272,8.293c7.288-0.545,14.656,0.082,21.975-0.191   c4.724-0.177,10.553,2.02,13.428-3.827C2222.602,438.335,2218.328,434.33,2215.807,430.207z M2120.429,281.626   c-16.846,1.336-33.863,0.522-50.809,0.555c-0.917,0.002-1.835-0.534-3.367-1.01c0-26.777,0-53.546,0-80.347   c0.457-0.409,0.938-1.217,1.436-1.229c21.893-0.508,43.821-2.031,65.588,1.782c3.257,0.571,6.508,1.387,9.632,2.465   c22.691,7.829,32.979,31.217,23.508,53.317c-3.289,7.676-8.75,13.798-16.402,16.607   C2140.446,277.279,2130.454,280.832,2120.429,281.626z M1510.848,365.782c-0.145,3.212-0.408,6.423-0.414,9.635   c-0.041,20.332,0.042,40.664-0.055,60.996c-0.046,9.812-1.35,11.099-10.813,11.268c-6.664,0.119-13.339,0.201-19.996-0.052   c-6.911-0.262-8.555-2.107-8.97-9.146c-0.117-1.993-0.035-3.998-0.035-5.998c0-91.328,0.001-182.655,0.003-273.983   c0-2.333-0.103-4.674,0.049-6.997c0.41-6.281,2.293-8.589,8.35-8.863c7.65-0.346,15.339-0.334,22.99-0.008   c6.248,0.267,7.985,2.343,8.395,8.728c0.171,2.656,0.06,5.331,0.06,7.997c0.003,50.997-0.006,101.994,0.024,152.99   c0.002,3.53,0.291,7.061,0.533,12.521c3.579-2.975,5.855-4.624,7.85-6.562c20.072-19.515,40.188-38.987,60.063-58.701   c4.088-4.054,8.282-6.062,14.087-5.847c9.653,0.357,19.33,0.062,28.995,0.118c3.938,0.023,8.352-0.64,10.022,4.406   c1.537,4.641-1.399,7.438-4.468,10.214c-24.224,21.912-48.416,43.857-72.605,65.808c-2.937,2.665-5.798,5.416-9.142,8.547   c2.047,2.341,3.622,4.402,5.457,6.199c27.617,27.054,55.268,54.072,82.911,81.101c1.668,1.631,3.833,3.003,4.866,4.969   c1.276,2.43,2.831,5.83,2.01,7.931c-0.82,2.102-4.282,4.01-6.836,4.41c-4.557,0.715-9.304,0.336-13.967,0.228   c-8.958-0.209-18.855,1.722-26.598-1.49c-7.396-3.067-12.635-11.461-18.668-17.663c-17.893-18.395-35.704-36.869-53.562-55.298   c-2.734-2.821-5.545-5.569-8.32-8.352C1512.326,365.185,1511.587,365.483,1510.848,365.782z M2695.914,366.062   c0,6.298,0,12.597,0,18.895c0,17.325,0.1,34.651-0.04,51.977c-0.072,8.831-1.858,10.542-10.502,10.738   c-6.327,0.145-12.663,0.146-18.99,0.003c-8.752-0.197-10.197-1.73-10.579-10.688c-0.085-1.996-0.033-3.998-0.033-5.997   c-0.001-90.626-0.006-181.252,0.002-271.878c0.001-16.409,0.205-16.592,16.856-16.595c4.998-0.001,10.013-0.222,14.988,0.122   c5.515,0.38,7.663,2.647,8.201,8.091c0.261,2.642,0.096,5.326,0.096,7.991c0.004,50.978,0.004,101.955,0.004,152.932   c0,3.604,0,7.206,0,13.454c4.343-3.719,7.057-5.796,9.488-8.164c19.094-18.594,38.266-37.111,57.102-55.963   c5.055-5.058,10.17-7.796,17.532-7.27c8.618,0.617,17.315,0.092,25.978,0.167c4.229,0.037,9.079-0.983,11.188,4.287   c2.098,5.242-1.955,7.966-5.098,10.823c-24.158,21.966-48.37,43.872-72.551,65.812c-2.688,2.438-5.285,4.974-8.703,8.199   c2.555,2.754,4.633,5.189,6.91,7.42c27.375,26.803,54.78,53.575,82.176,80.357c1.428,1.396,3.354,2.571,4.141,4.271   c1.169,2.522,2.705,5.865,1.889,8.033c-0.78,2.074-4.322,4.292-6.722,4.376c-12.312,0.428-24.673,0.624-36.958-0.105   c-3.362-0.2-7.052-3.355-9.686-6.043c-22.154-22.6-44.091-45.413-66.113-68.143c-2.7-2.787-5.521-5.457-8.286-8.182   C2697.44,365.343,2696.677,365.703,2695.914,366.062z M1840.577,335.234c-3.385-49.808-37.967-83.175-83.651-85.873   c-39.718-2.346-70.796,12.417-92.104,46.27c-12.332,19.591-16.311,41.454-14.169,64.212c3.817,40.554,23.698,70.115,61.984,85.668   c22.012,8.942,44.857,8.765,67.659,2.753c20.354-5.366,36.628-17.087,49.99-33.075c5.912-7.074,5.629-10.024-1.257-15.727   c-3.076-2.547-6.275-4.947-9.424-7.407c-12.073-9.433-11.907-9.283-21.943,2.094c-16.958,19.223-38.215,26.559-62.995,19.745   c-23.64-6.5-37.407-22.927-42.733-48.761c5.134-0.247,9.02-0.594,12.905-0.598c39.631-0.04,79.262-0.023,118.893-0.028   c2.663,0,5.34,0.112,7.988-0.1c6.993-0.558,8.705-2.016,9.08-9.219C1841.146,348.557,1841.028,341.864,1840.577,335.234z    M1693.425,329.471c0.918-3.563,1.294-6.46,2.388-9.054c13.689-32.431,47.972-43.22,77.102-30.466   c16.098,7.048,23.911,21.027,26.583,39.52C1763.535,329.471,1729.103,329.471,1693.425,329.471z M1227.943,435.613   c-0.964-13.272-1.922-26.57-2.102-39.867c-0.337-24.993,0.207-49.998-0.2-74.989c-0.604-37.09-20.151-61.914-55.501-69.337   c-30.629-6.432-59.62-1.188-86.089,16.002c-3.334,2.166-6.481,4.723-9.356,7.474c-5.081,4.859-5.246,7.422-1.133,12.934   c2.189,2.933,4.686,5.636,7.052,8.437c10.08,11.933,9.977,11.79,22.764,2.43c18.379-13.455,38.896-17.142,60.678-11.125   c15.904,4.394,24.232,18.742,21.223,35.232c-11.087,0.477-22.385,0.847-33.668,1.476c-17.695,0.985-35.176,3.392-51.802,9.858   c-15.713,6.111-29.333,15.274-35.399,31.719c-12.463,33.78-0.067,68.99,36.677,81.872c15.831,5.551,32.08,5.479,48.37,2.829   c14.49-2.355,26.971-9.168,39.345-20.233c0.943,4.084,1.478,6.234,1.934,8.401c1.596,7.573,2.871,8.742,10.61,8.947   c5.329,0.142,10.667,0.115,15.997,0.016C1227.32,447.503,1228.671,445.637,1227.943,435.613z M1118.819,414.209   c-8.646-3.017-15.097-8.199-17.318-17.653c-2.562-10.907,0.092-18.94,9.445-25.14c4.381-2.903,9.278-5.373,14.287-6.921   c19.576-6.047,39.741-6.993,60.639-6.635C1191.143,398.224,1155.838,427.126,1118.819,414.209z M2406.998,436.55   c-1.129-12.261-2.296-24.561-2.477-36.858c-0.416-28.325,0.271-56.673-0.46-84.985c-0.752-29.1-17.894-51.255-45.352-60.742   c-17.816-6.156-36.038-6.211-54.291-3.092c-17.677,3.02-33.85,9.903-47.816,21.39c-8.509,6.997-8.736,9.778-1.94,18.084   c2.743,3.353,5.51,6.69,8.376,9.938c6.278,7.116,8.424,7.404,15.631,1.342c14.782-12.435,31.784-17.342,50.96-16.535   c18.396,0.774,36.071,10.047,35.785,37.057c-3.687,0.385-6.9,0.862-10.131,1.028c-8.985,0.462-17.991,0.604-26.966,1.219   c-16.663,1.142-33.125,3.529-48.855,9.486c-14.766,5.592-27.31,14.132-34.643,28.575c-15.744,31.01-2.961,69.334,29.116,82.562   c30.504,12.579,60.573,10.616,88.009-9.787c1.75-1.302,3.705-2.328,6.086-3.805c0.714,3.044,1.202,5.293,1.771,7.521   c2.021,7.905,2.723,8.54,10.814,8.731c5.663,0.135,11.336,0.153,16.997-0.011C2406.157,447.421,2407.78,445.044,2406.998,436.55z    M2325.003,415.884c-8.695,1.076-18.007,0.133-26.611-1.786c-10.527-2.348-17.209-9.521-18.462-20.953   c-1.265-11.531,4.044-19.172,13.821-24.205c3.826-1.971,7.817-3.813,11.941-4.98c19.07-5.394,38.619-6.353,58.763-6.294   C2369.657,380.731,2354.982,412.176,2325.003,415.884z M2485.229,270.142c4.058-2.836,6.711-4.761,9.435-6.581   c24.499-16.371,50.868-18.994,78.17-9.103c23.422,8.484,35.356,27.307,40.845,50.562c1.741,7.375,2.407,15.151,2.46,22.752   c0.247,35.634,0.111,71.27,0.1,106.904c-0.001,2.33,0.615,5.037-0.352,6.894c-1.221,2.345-3.662,5.53-5.77,5.682   c-8.943,0.645-17.961,0.43-26.945,0.255c-3.818-0.073-6.127-2.429-6.439-6.308c-0.213-2.649-0.157-5.323-0.158-7.986   c-0.011-28.642,0.132-57.283-0.093-85.923c-0.069-8.962-0.636-17.981-1.826-26.86c-2.005-14.954-7.739-28.007-23.483-32.937   c-16.555-5.184-32.359-3.377-45.801,8.688c-9.832,8.826-14.772,20.459-17.027,33.147c-1.274,7.17-1.793,14.554-1.847,21.847   c-0.206,27.974-0.051,55.95-0.103,83.925c-0.021,11.551-1.033,12.507-12.525,12.601c-5.662,0.047-11.326,0.12-16.984-0.027   c-8.347-0.218-9.957-1.813-10.292-9.858c-0.11-2.66-0.137-5.26-0.14-7.924c0-5.823,0.07-95.315-0.1-142.938   c-0.027-7.645-1.018-15.28-1.255-22.93c-0.253-8.166,1.491-9.902,9.794-10.125c5.99-0.161,11.989-0.115,17.982-0.018   c9.222,0.149,10.047,0.943,11.323,10.041C2484.42,265.509,2484.719,267.086,2485.229,270.142z M1363.261,452.948   c-29.403-0.572-55.155-9.391-75.847-30.776c-14.097-14.569-22.502-32.162-25.581-52.065c-3.752-24.262-1.465-47.837,10.432-69.834   c15.738-29.1,40.656-44.944,72.88-50.026c20.596-3.247,40.448-0.608,59.521,7.884c11.459,5.103,21.301,12.355,29.208,22.084   c5.05,6.214,4.698,9.335-1.545,14.131c-5.542,4.259-11.298,8.245-17.052,12.219c-4.166,2.877-8.142,2.712-11.372-1.549   c-14.232-18.772-33.577-23.121-55.288-18.385c-22.432,4.893-36.773,19.471-43.424,41.188c-5.545,18.105-4.64,36.145,2.992,53.678   c17.817,40.934,74.042,44.966,96.596,16.573c5.716-7.195,7.536-6.942,14.949-1.691c4.346,3.079,8.611,6.279,12.82,9.544   c7.66,5.941,8.136,9.272,1.83,16.275c-12.11,13.447-26.767,23.069-44.506,27.097   C1381.175,451.268,1372.143,451.775,1363.261,452.948z M1918.651,269.548c3.236-2.457,5.073-3.814,6.872-5.221   c17.613-13.773,37.587-17.752,59.319-14.166c8.309,1.37,9.963,3.597,9.15,12.218c-0.53,5.627-1.397,11.226-2.221,16.821   c-1.419,9.649-3.64,10.867-13.271,9.78c-7.193-0.811-14.652-1.355-21.762-0.363c-13.065,1.822-22.387,9.627-28.472,21.255   c-5.831,11.145-8.343,23.082-8.34,35.606c0.006,28.973-0.005,57.945-0.012,86.918c0,2.331,0.143,4.678-0.071,6.99   c-0.53,5.75-2.404,7.972-7.928,8.188c-7.98,0.314-15.99,0.318-23.971,0.003c-5.867-0.233-7.416-2.01-8.019-8.032   c-0.298-2.971-0.153-5.988-0.154-8.984c-0.008-35.634-0.054-105.187-0.054-106.899c-0.091-18.974-0.622-37.946-1.071-56.917   c-0.281-11.901,0.404-12.771,11.872-12.88c5.328-0.051,10.658-0.091,15.984,0.016c8.713,0.175,9.33,0.743,11.093,9.413   C1917.919,264.873,1918.138,266.474,1918.651,269.548z M843.748,319.75c0,0-0.029,118.254-0.029,120.921   c0,4.686-3.087,6.949-7.909,6.972c-8.664,0.039-17.328,0.047-25.992-0.024c-4.852-0.041-7.671-2.722-7.671-7.471   c0-2.554,0.005-262.897,0.005-263.937c0.003-14.499,0.502-14.946,15.322-14.992c4.666-0.015,9.333-0.062,13.997,0.022   c10.76,0.194,12.13,1.548,12.263,12.094c0.067,5.331,0.014,101.158,0.014,106.223h134.919c0-5.064-0.053-100.393,0.014-105.724   c0.133-10.546,1.503-11.899,12.263-12.094c4.664-0.084,9.331-0.037,13.997-0.022c14.82,0.046,15.319,0.493,15.322,14.992   c0,1.039,0.005,261.383,0.005,263.937c0,4.749-2.82,7.43-7.671,7.471c-8.664,0.071-17.328,0.063-25.992,0.024   c-4.822-0.022-7.909-2.286-7.909-6.972c0-2.667-0.029-121.42-0.029-121.42H843.748z"
       id="path50" /></g><path
     style="opacity:1;fill:#ffffff;fill-opacity:1;stroke:none;stroke-opacity:1"
     d="m 983.39283,445.03378 c -1.9782,-1.9782 -3.59673,-31.04518 -3.59673,-64.5933 l 0,-60.99656 -69.58763,0 -69.58763,0 0,61.85567 0,61.85567 -18.04123,0 -18.04124,0 0,-139.17525 0,-139.17526 18.04124,0 18.04123,0 0,59.27835 0,59.27835 69.58763,0 69.58763,0 0,-59.27835 0,-59.27835 18.04124,0 18.04126,0 0,139.17526 c 0,116.70773 -1.1802,139.17525 -7.3104,139.17525 -4.0207,0 -10.52073,1.23194 -14.44451,2.73763 -3.92377,1.50569 -8.75266,1.11909 -10.73086,-0.85911 z"
     id="path4184"
     inkscape:connector-curvature="0" /><path
     style="opacity:1;fill:#ffffff;fill-opacity:1;stroke:none;stroke-opacity:1"
     d="m 1089.2037,437.97898 c -40.5516,-24.72427 -33.8108,-81.79937 11.9174,-100.90579 9.0756,-3.79207 31.8821,-8.47048 50.6809,-10.39647 31.2389,-3.20053 34.1797,-4.52415 34.1797,-15.3843 0,-26.63067 -43.5141,-36.46195 -78.467,-17.72831 l -19.036,10.20266 -7.7346,-11.0427 c -9.7545,-13.92661 -6.8715,-18.41423 19.5333,-30.40471 44.3006,-20.11698 98.9505,-7.55922 114.8426,26.38915 3.2683,6.9818 6.8142,44.58851 7.8797,83.57046 l 1.9373,70.87629 -16.9003,0 c -11.5118,0 -16.9004,-2.44113 -16.9004,-7.65619 0,-6.24711 -3.0832,-5.77631 -16.7526,2.55805 -22.4647,13.69702 -62.6471,13.66016 -85.18,-0.0781 z m 83.1885,-34.18642 c 9.5112,-9.51118 13.5895,-19.00929 13.5895,-31.64898 l 0,-18.05948 -27.0619,2.80615 c -35.4292,3.6738 -54.9406,13.00283 -58.7242,28.07808 -7.9521,31.68365 45.4209,45.59991 72.1966,18.82423 z"
     id="path4186"
     inkscape:connector-curvature="0" /><path
     style="opacity:1;fill:#ffffff;fill-opacity:1;stroke:none;stroke-opacity:1"
     d="m 1317.4365,440.47343 c -23.504,-12.68751 -34.0609,-23.68304 -44.4408,-46.28724 -17.1636,-37.37721 -7.9854,-92.74917 19.4054,-117.07145 29.652,-26.33023 79.5393,-31.79276 115.708,-12.66973 26.6126,14.07059 30.6322,24.62741 12.9752,34.07717 -11.1905,5.98894 -14.3615,5.49155 -26.659,-4.18162 -27.1883,-21.38637 -71.717,-9.60485 -87.2263,23.07858 -15.6679,33.01769 -5.3076,74.62282 22.7025,91.16879 20.5476,12.13777 52.5128,11.31754 69.1567,-1.77455 10.737,-8.44569 15.5361,-9.4447 23.891,-4.97328 14.9349,7.99291 12.9496,18.21839 -6.1821,31.84134 -21.761,15.49526 -76.2992,19.22444 -99.3306,6.79199 z"
     id="path4188"
     inkscape:connector-curvature="0" /><path
     style="opacity:1;fill:#ffffff;fill-opacity:1;stroke:none;stroke-opacity:1"
     d="m 1474.6415,293.67073 0,-149.48454 15.4639,0 15.4639,0 0.3623,81.18557 c 0.1993,44.65206 2.1654,85.80382 4.3692,91.44835 3.5967,9.21237 7.6907,6.70632 39.9988,-24.48453 32.7153,-31.58394 37.9488,-34.74733 57.4865,-34.74733 11.822,0 21.4174,1.73969 21.3232,3.86598 -0.094,2.12629 -18.651,20.03539 -41.2371,39.79801 -22.5862,19.76261 -41.0658,38.27573 -41.0658,41.14026 0,2.86453 21.4104,26.70801 47.5786,52.9855 l 47.5786,47.77726 -25.179,0 c -24.8752,0 -25.6481,-0.50488 -64.0514,-41.84236 -44.0207,-47.38396 -46.1655,-46.94283 -46.8016,9.62587 l -0.3623,32.21649 -15.4639,0 -15.4639,0 0,-149.48453 z"
     id="path4190"
     inkscape:connector-curvature="0" /><path
     style="opacity:1;fill:#ffffff;fill-opacity:1;stroke:none;stroke-opacity:1"
     d="m 1709.1775,441.00393 c -19.2098,-8.57448 -41.3972,-31.84659 -48.6411,-51.01929 -7.6129,-20.14926 -6.8524,-62.43873 1.4816,-82.38475 9.4823,-22.69438 40.4061,-48.76105 62.8397,-52.96962 42.0088,-7.8809 76.0457,5.25631 98.3066,37.94345 11.1676,16.39812 20.0371,54.60699 14.6859,63.26542 -1.6458,2.66305 -35.3297,4.8419 -74.8532,4.8419 -68.2338,0 -71.8607,0.51621 -71.8607,10.22795 0,5.62538 6.5166,17.52133 14.4814,26.43545 11.6503,13.03896 19.5489,16.69442 40.4022,18.69816 23.4155,2.24993 27.6881,0.93892 44.2066,-13.56449 18.2651,-16.03699 18.2996,-16.04397 30.4741,-6.16812 l 12.1883,9.88703 -12.8866,13.98881 c -7.0876,7.69384 -20.3508,17.16924 -29.4736,21.05644 -20.8941,8.90286 -61.1358,8.78497 -81.3512,-0.23834 z m 90.0423,-120.27135 c -0.3745,-20.60434 -24.6631,-37.37113 -54.1364,-37.37113 -14.6162,0 -22.8647,3.96912 -36.4213,17.52577 -9.6392,9.63918 -17.5258,20.07732 -17.5258,23.19588 0,3.7637 18.1974,5.6701 54.1237,5.6701 48.1724,0 54.1057,-0.99188 53.9598,-9.02062 z"
     id="path4192"
     inkscape:connector-curvature="0" /><path
     style="opacity:1;fill:#ffffff;fill-opacity:1;stroke:none;stroke-opacity:1"
     d="m 1881.858,350.37176 0,-92.78351 15.6257,0 c 8.8214,0 16.8619,3.22172 18.4648,7.39861 2.3636,6.15953 5.5738,5.73112 19.1681,-2.55805 8.9809,-5.47616 25.1744,-9.96533 35.9855,-9.97593 19.0747,-0.0187 19.6087,0.47654 18.0412,16.73331 -1.3488,13.98932 -3.8076,16.83637 -14.9066,17.26059 -46.9919,1.7961 -56.2963,18.24058 -56.2963,99.49781 l 0,57.21067 -18.0412,0 -18.0412,0 0,-92.7835 z"
     id="path4194"
     inkscape:connector-curvature="0" /><path
     style="opacity:1;fill:#ffffff;fill-opacity:1;stroke:none;stroke-opacity:1"
     d="m 2026.1879,303.98001 0,-139.17526 60.2282,0 c 49.4776,0 63.9892,1.82064 81.2981,10.19978 26.5064,12.83149 38.886,33.37909 38.886,64.54249 0,30.62577 -11.449,50.03541 -38.1955,64.75338 -11.5955,6.38076 -21.8083,12.15738 -22.6951,12.83694 -0.8867,0.67956 14.7705,27.83603 34.7938,60.34772 20.0234,32.51168 36.4061,60.58771 36.4061,62.39118 0,1.80346 -9.1898,3.27902 -20.4217,3.27902 l -20.4217,0 -36.4762,-61.85567 -36.4761,-61.85567 -20.4217,0 -20.4218,0 0,61.85567 0,61.85567 -18.0412,0 -18.0412,0 0,-139.17525 z m 117.8963,-26.31539 c 29.2041,-10.18061 36.2382,-45.15082 13.3979,-66.60819 -11.336,-10.64958 -18.2252,-12.279 -52.8351,-12.49646 l -39.7994,-0.25007 -1.4971,42.52578 -1.4971,42.52577 32.9444,0 c 18.1195,0 40.2983,-2.56357 49.2864,-5.69683 z"
     id="path4196"
     inkscape:connector-curvature="0" /><path
     style="opacity:1;fill:#ffffff;fill-opacity:1;stroke:none;stroke-opacity:1"
     d="m 2275.6111,443.258 c -18.4126,-7.43955 -32.9284,-30.59433 -32.9284,-52.52563 0,-39.20527 25.6702,-57.51285 89.8641,-64.08972 28.3324,-2.90273 33.8472,-5.0315 33.8472,-13.0652 0,-28.08284 -42.7862,-39.13706 -78.1405,-20.18831 -18.4698,9.89922 -18.8246,9.90045 -27.6969,0.0967 -7.7449,-8.55807 -7.9983,-11.12368 -1.8327,-18.55813 18.1503,-21.88556 78.2903,-29.95502 108.1541,-14.51188 30.0722,15.55095 35.5578,32.79787 35.5792,111.86315 l 0.019,70.87629 -15.4639,0 c -10.3182,0 -15.4639,-2.5762 -15.4639,-7.74197 0,-6.4262 -3.2722,-5.98817 -19.2536,2.57732 -20.0333,10.7372 -56.8819,13.26832 -76.684,5.26739 z m 75.7155,-40.94334 c 10.4063,-10.40623 15.0674,-20.19538 15.0674,-31.64376 l 0,-16.57634 -31.1121,2.82114 c -39.0935,3.54488 -56.5167,14.19793 -56.5167,34.55587 0,18.17144 10.8052,25.53951 37.7676,25.75375 15.0552,0.11964 23.2944,-3.41126 34.7938,-14.91066 z"
     id="path4198"
     inkscape:connector-curvature="0" /><path
     style="opacity:1;fill:#ffffff;fill-opacity:1;stroke:none;stroke-opacity:1"
     d="m 2448.8683,350.37176 0,-92.78351 14.9124,0 c 8.5161,0 16.1881,3.32432 17.8865,7.7503 2.5471,6.63764 5.4013,6.2704 19.8814,-2.55805 22.2839,-13.58644 57.9912,-13.54444 80.3618,0.0945 26.2529,16.00594 31.9063,36.04675 31.9063,113.10436 l 0,67.17587 -17.6418,0 -17.6419,0 -1.688,-70.05491 c -1.6001,-66.40498 -2.3221,-70.5677 -13.8571,-79.89691 -13.4928,-10.91271 -37.0814,-12.81283 -53.0392,-4.27245 -18.2193,9.75065 -24.998,36.15111 -24.998,97.35768 l 0,56.86659 -18.0412,0 -18.0412,0 0,-92.7835 z"
     id="path4200"
     inkscape:connector-curvature="0" /><path
     style="opacity:1;fill:#ffffff;fill-opacity:1;stroke:none;stroke-opacity:1"
     d="m 2660.2085,293.67073 0,-149.48454 15.4639,0 15.4639,0 0,90.20619 c 0,49.6134 2.0372,90.20618 4.5272,90.20618 2.4899,0 20.812,-15.07732 40.7158,-33.50515 32.3033,-29.90792 38.4583,-33.50516 57.3285,-33.50516 11.6269,0 20.9742,1.73969 20.7717,3.86598 -0.2025,2.12629 -19.9335,21.20683 -43.8467,42.4012 l -43.4785,38.53523 50.1933,50.3823 50.1932,50.3823 -26.0958,0 c -25.9505,0 -26.2891,-0.21518 -60.8334,-38.65979 -19.1058,-21.26289 -38.0537,-38.65979 -42.1065,-38.65979 -5.7336,0 -7.3688,8.57876 -7.3688,38.65979 l 0,38.65979 -15.4639,0 -15.4639,0 0,-149.48453 z"
     id="path4202"
     inkscape:connector-curvature="0" /></svg>